<svg width="124" height="32" viewBox="0 0 124 32" fill="none" xmlns="http://www.w3.org/2000/svg">
<path fill-rule="evenodd" clip-rule="evenodd" d="M24.3771 8.10543C22.9643 8.04731 21.5682 8.4402 20.3109 9.1789C19.3601 9.7375 19.3511 9.7228 19.3485 8.5805C19.3477 8.2129 19.3484 7.84533 19.3484 7.4777C19.3484 6.06859 19.3518 4.65942 19.3472 3.25034C19.3437 2.17022 19.188 2.01382 18.1342 2.00253C17.8251 1.99921 17.5158 1.99912 17.2067 2.00248C16.1998 2.01338 16.1393 2.06418 16.1367 3.03226C16.1311 5.14592 16.135 7.25961 16.135 9.37328H16.1325C16.1325 11.487 16.1324 13.6007 16.1327 15.7144C16.1327 16.0797 16.0716 16.4731 16.4113 16.7352C17.0943 17.2622 17.8062 17.7538 18.5731 18.1507C18.9908 18.3669 19.2804 18.1777 19.3304 17.6786C19.3729 17.2537 19.3667 16.8207 19.3437 16.3932C19.2887 15.3693 19.6276 14.4599 20.1684 13.621C22.0678 10.6749 26.1379 10.5398 28.2234 13.325C29.3295 14.8018 29.5146 16.4689 29.2427 18.2151C29.0396 19.5199 28.3302 20.5351 27.2541 21.3046C25.4237 22.6133 23.3925 22.6858 21.3277 22.1175C19.3696 21.5787 17.6843 20.4623 16.0441 19.308C14.8354 18.4574 13.6766 17.5378 12.4819 16.6673C10.4502 15.187 8.18231 14.6942 5.73083 15.2543C3.08766 15.8581 1.20801 17.4251 0.141697 19.9095C-0.173005 20.6428 0.0270835 20.9298 0.836443 20.952C1.51612 20.9706 2.19721 20.9401 2.87668 20.9615C3.33551 20.976 3.64804 20.8099 3.83064 20.3909C3.89151 20.2511 3.97796 20.1218 4.05866 19.9912C4.97089 18.516 6.59659 17.8734 8.28597 18.3185C9.03814 18.5167 9.73595 18.8318 10.3924 19.2468C11.8788 20.1865 13.3005 21.2163 14.7108 22.263C17.5688 24.3839 20.6109 25.9064 24.3574 25.5926C26.8974 25.3799 29.0096 24.4492 30.6443 22.5217C31.9446 20.9881 32.521 19.1979 32.5474 17.1862C32.5713 15.3952 32.2472 13.717 31.3168 12.1784C29.7483 9.58494 27.3798 8.22906 24.3771 8.10543Z" fill="white"/>
<path fill-rule="evenodd" clip-rule="evenodd" d="M83.6562 16.4645C83.2604 15.9456 83.2657 15.9096 83.6916 15.4637C84.3712 14.7523 85.0555 14.0453 85.7457 13.3439C86.9325 12.1378 88.1278 10.94 89.3122 9.7316C89.4729 9.56752 89.7454 9.42451 89.6147 9.12445C89.4829 8.82185 89.198 8.79916 88.9086 8.8003C88.2284 8.80292 87.5468 8.82856 86.8686 8.79021C86.3571 8.76125 86.0039 8.94582 85.6586 9.30832C83.5379 11.535 81.4002 13.7457 79.2607 15.9548C79.054 16.1681 78.8474 16.5725 78.5625 16.477C78.4698 16.446 78.4112 16.3966 78.3744 16.3358V15.5831C78.3603 11.6317 78.3653 7.6802 78.3653 3.7287C78.3653 3.51429 78.378 3.29865 78.36 3.0857C78.3194 2.60827 78.1463 2.40025 77.6866 2.38054C77.0387 2.35277 76.3883 2.36339 75.7395 2.38418C75.3825 2.39564 75.1724 2.59238 75.18 2.97354C75.185 3.21843 75.1771 3.4636 75.1771 3.70863C75.1768 7.04747 75.1771 10.3864 75.1771 13.7252C75.1771 15.7162 75.1768 17.7073 75.1771 19.6984C75.1771 21.2606 75.1697 22.8229 75.1815 24.385C75.1865 25.0455 75.2886 25.1537 75.9109 25.1794C76.4666 25.2022 77.0243 25.2015 77.58 25.1799C78.1602 25.1574 78.3365 24.9759 78.3603 24.3912C78.3644 24.2898 78.3694 24.1879 78.3744 24.0858V24.0859V24.0857C78.3906 23.7545 78.4044 23.4217 78.3744 23.0958V22.3256C78.3744 22.3256 78.3238 21.7228 78.4724 21.1463C78.5398 20.9367 78.629 20.7355 78.7373 20.541C79.0014 20.169 79.7122 19.4442 80.2782 18.8868C81.1253 18.1101 80.9634 18.0303 82.0459 19.4193C83.3872 21.14 84.7338 22.8571 86.0524 24.5947C86.3859 25.0339 86.7621 25.2306 87.311 25.1931C87.8034 25.1594 88.3 25.1893 88.7944 25.1849C89.1594 25.1817 89.5971 25.2761 89.7881 24.8716C89.9835 24.4576 89.5818 24.2118 89.3687 23.9327C87.4673 21.4413 85.5576 18.9559 83.6562 16.4645Z" fill="white"/>
<path fill-rule="evenodd" clip-rule="evenodd" d="M47.5814 20.8716C45.6468 23.0707 41.9252 23.371 39.6577 20.7621C37.6265 18.4256 37.8611 14.6648 40.0889 12.6867C41.1052 11.7843 42.2649 11.3197 43.3613 11.3808C45.6032 11.3638 47.0714 12.2437 48.1065 13.8583C49.4973 16.0273 49.2842 18.9361 47.5814 20.8716ZM43.6503 8.46973C38.2952 8.46585 35.0714 12.7323 35.0681 16.9843C35.0649 21.2989 38.2163 25.4656 43.532 25.4995C48.8927 25.5338 52.2266 21.4575 52.2031 16.9872C52.2711 12.6333 48.9748 8.47361 43.6503 8.46973Z" fill="white"/>
<path fill-rule="evenodd" clip-rule="evenodd" d="M68.8907 17.0646C68.8071 19.192 67.9959 20.9368 66.0477 21.9829C63.0682 23.583 59.2825 22.0555 58.3509 18.4404C57.9403 16.8481 58.1546 15.326 58.9817 13.9256C59.8965 12.3762 61.2692 11.5285 63.1221 11.3834C66.7756 11.0974 69.0373 14.3726 68.8907 17.0646ZM63.5562 8.47266C58.3668 8.47634 54.9725 12.4315 54.9634 16.9706C54.954 21.5851 58.3076 25.5153 63.4994 25.5001C69.1644 25.4833 72.1899 21.0209 72.0736 17.0014C72.2638 12.8341 68.9675 8.46887 63.5562 8.47266Z" fill="white"/>
<path fill-rule="evenodd" clip-rule="evenodd" d="M122.008 8.7998C121.606 8.79613 121.205 8.79785 120.803 8.79957C119.872 8.80362 119.86 8.79963 119.531 9.64113C118.217 13.0077 116.917 16.38 115.591 19.7417C115.573 19.7862 115.559 19.836 115.546 19.8879C115.496 20.0168 115.439 20.1495 115.389 20.2392C115.259 20.4703 115.091 20.4511 114.977 20.4511C114.862 20.4511 114.77 20.2619 114.77 20.2619L114.48 19.6727C113.083 16.5166 111.706 13.3519 110.302 10.1986C109.602 8.62424 109.993 8.81292 108.164 8.80738C107.762 8.80738 107.358 8.77939 106.959 8.81479C106.508 8.85483 106.384 9.07583 106.54 9.50129C106.646 9.78829 106.777 10.0665 106.905 10.3447C108.957 14.7991 110.986 19.2644 113.087 23.6963C113.476 24.5169 113.348 25.1195 112.917 25.824C112.26 26.8987 111.326 27.3258 110.102 27.1495C109.709 27.093 109.323 26.9604 108.947 26.8262C108.116 26.5292 108.077 26.5343 107.701 27.3484C107.56 27.6544 107.46 27.9805 107.305 28.2784C106.917 29.0194 107.2 29.1815 107.827 29.4288C108.813 29.8175 109.827 29.9878 110.898 29.9995C112.771 30.0202 114.157 29.2241 115.197 27.736C115.71 27.0017 116.097 26.2025 116.435 25.3782C117.904 21.8079 119.374 18.2383 120.84 14.6674C121.492 13.0802 122.139 11.491 122.786 9.90205C123.18 8.93608 123.09 8.80972 122.008 8.7998Z" fill="white"/>
<path fill-rule="evenodd" clip-rule="evenodd" d="M101.579 16.1339C100.495 15.682 99.3469 15.4263 98.2411 15.0431C97.686 14.8508 97.1367 14.6525 96.6523 14.3092C95.6386 13.591 95.6686 12.4113 96.7294 11.7579C97.3534 11.3734 98.0671 11.237 98.7718 11.2941C99.9785 11.3918 101.133 11.7308 102.198 12.328C102.386 12.4335 102.576 12.5368 102.771 12.6288C103.131 12.7981 103.429 12.7377 103.643 12.3836C103.866 12.0161 104.101 11.6561 104.315 11.284C104.704 10.6065 104.665 10.4134 103.989 10.0373C102.349 9.12611 100.615 8.53307 98.7041 8.60201C98.395 8.60201 98.0851 8.58493 97.7772 8.60493C96.2994 8.70108 95.0258 9.25139 94.01 10.332C92.3535 12.0945 92.2049 15.424 94.9598 16.947C95.6091 17.3061 96.2823 17.6122 96.9928 17.8289C97.6704 18.0355 98.3594 18.2055 99.0328 18.424C99.764 18.6613 100.517 18.8588 101.156 19.3137C102.071 19.9656 102.178 21.0372 101.403 21.8479C100.934 22.3395 100.334 22.539 99.6633 22.5964C97.8302 22.7531 96.1601 22.2655 94.6661 21.2561C93.3542 20.3696 93.4364 20.7532 92.8009 21.6076C91.8629 22.8688 91.8888 22.9513 93.2839 23.7923C95.266 24.987 97.4137 25.5356 99.7369 25.3845C101.172 25.291 102.443 24.8022 103.504 23.8317C105.207 22.2734 105.498 19.2329 103.903 17.6059C103.244 16.9338 102.441 16.4936 101.579 16.1339Z" fill="white"/>
</svg>
